<svg width="216" height="216" viewBox="0 0 216 216" fill="none" xmlns="http://www.w3.org/2000/svg">
<rect width="216" height="216" fill="#D9D9D9"/>
<rect width="216" height="216" fill="url(#paint0_linear_3014_266)"/>
<path d="M96.7824 142C91.1523 142 85.414 140.068 79.5674 136.205C73.9373 132.127 68.8486 126.976 64.3012 120.751C59.7538 114.312 56.5057 107.659 54.5568 100.791C53.2576 95.6395 54.232 91.7761 57.4801 89.2005C60.9448 86.4103 64.8425 85.4445 69.1734 86.303C76.7523 92.0981 83.3568 96.82 88.9869 100.469C94.617 104.117 99.3809 105.942 103.279 105.942C107.393 105.942 113.673 104.117 122.118 100.469C130.563 96.6053 139.766 92.2054 149.727 87.2688C151.892 86.4103 154.166 86.4103 156.548 87.2688C158.93 87.9127 160.554 89.3079 161.42 91.4542C162.503 93.6005 162.07 96.3907 160.121 99.8248C157.089 104.976 152.975 110.127 147.778 115.278C142.581 120.215 136.843 124.722 130.563 128.8C124.5 132.664 118.437 135.883 112.373 138.459C106.527 140.82 101.33 142 96.7824 142Z" fill="white"/>
<defs>
<linearGradient id="paint0_linear_3014_266" x1="0" y1="0" x2="247.33" y2="45.4279" gradientUnits="userSpaceOnUse">
<stop stop-color="#8023FF"/>
<stop offset="1" stop-color="#8023FF"/>
</linearGradient>
</defs>
</svg>
